<svg t="1692292721731" class="icon" viewBox="0 0 1024 1024" version="1.1" xmlns="http://www.w3.org/2000/svg" p-id="10887" width="200" height="200"><path d="M512 57.677643C226.27383 57.677643 57.677643 226.27383 57.677643 512s168.596187 454.322357 454.322357 454.322357 454.322357-168.596187 454.322357-454.322357S797.72617 57.677643 512 57.677643z" fill="#E29963" p-id="10888"></path><path d="M729.400347 762.281927H294.599653c-4.702946 0-9.228423-1.863432-12.511611-5.235355-3.371924-3.371924-5.235355-7.808666-5.235356-12.511612v-465.059272c0-4.702946 1.863432-9.228423 5.235356-12.511612 3.283189-3.371924 7.808666-5.235355 12.511611-5.235355h434.800694c4.702946 0 9.228423 1.863432 12.511611 5.235355 3.371924 3.283189 5.235355 7.808666 5.235356 12.511612v465.059272c0 9.760832-7.986135 17.746967-17.746967 17.746967z m-425.92721-26.62045h417.053726v-447.312305H303.473137v447.312305z" fill="#FFFFFF" p-id="10889"></path><path d="M512 748.971702l110.918544-118.461005H401.081456l-110.918544 118.461005h221.837088z" fill="#936FB9" p-id="10890"></path><path d="M513.863432 753.319709H280.135875l119.082149-127.157019h233.727557l-119.082149 127.157019z m-213.673484-8.696014h209.94662l102.75494-109.764991H402.944887l-102.754939 109.764991z" fill="#FFFFFF" p-id="10891"></path><path d="M401.081456 630.510697h221.837088l-110.918544-118.54974-110.918544 118.54974z" fill="#71B8A6" p-id="10892"></path><path d="M632.945581 634.858704H391.054419l120.945581-129.197921 120.945581 129.197921z m-221.837089-8.696014h201.783016L512 518.349865l-100.891508 107.812825z" fill="#FFFFFF" p-id="10893"></path><path d="M733.837088 275.038946l-110.918544 118.461005 110.918544 118.461006v-236.922011z" fill="#68A6CA" p-id="10894"></path><path d="M738.185095 522.964076l-121.211785-129.464125 121.211785-129.464124v258.928249z m-109.321317-129.464125l100.625303 107.457886v-214.915771l-100.625303 107.457885z" fill="#FFFFFF" p-id="10895"></path><path d="M622.918544 393.499951l-110.918544 118.461006 110.918544 118.461005 110.918544-118.461005-110.918544-118.461006z" fill="#CF6A69" p-id="10896"></path><path d="M622.918544 636.81087l-116.863778-124.849913 116.863778-124.761179 116.863778 124.761179-116.863778 124.849913z m-104.97331-124.849913l104.97331 112.160832 104.97331-112.160832-104.97331-112.072097-104.97331 112.072097z" fill="#FFFFFF" p-id="10897"></path><path d="M733.837088 511.960957l-221.837088 236.92201h221.837088v-236.92201z" fill="#E29963" p-id="10898"></path><path d="M738.185095 753.319709H501.972964l236.212131-252.273137v252.273137z m-216.158059-8.696014h207.462045v-221.659619l-207.462045 221.659619z" fill="#FFFFFF" p-id="10899"></path><path d="M290.162912 275.038946l221.837088 236.922011 221.837088-236.922011H290.162912z" fill="#84BC71" p-id="10900"></path><path d="M512 518.349865l-231.864125-247.658926h463.72825L512 518.349865z m-211.810052-238.962912l211.810052 226.27383 211.810052-226.27383H300.189948z" fill="#FFFFFF" p-id="10901"></path><path d="M290.162912 748.971702l221.837088-237.010745-221.837088-236.922011v473.932756z" fill="#E1B460" p-id="10902"></path><path d="M285.814905 759.974821v-495.938994l232.130329 247.92513-232.130329 248.013864z m8.696014-473.932755v451.926516l211.543847-226.007625-211.543847-225.918891z" fill="#FFFFFF" p-id="10903"></path></svg>